<svg width="132" height="149" viewBox="0 0 132 149" fill="none" xmlns="http://www.w3.org/2000/svg">
<g clip-path="url(#clip0_107_208)" filter="url(#filter0_f_107_208)">
<rect x="7" y="108" width="112.611" height="75.2716" transform="rotate(-63.4353 7 108)" fill="#111111"/>
<path d="M98.8527 114.287C98.4987 108.391 95.5123 104.338 88.4447 104.762L71.6935 105.768L72.1154 112.796L88.0857 111.837C91.0533 111.659 91.96 113.055 92.0702 114.89C92.253 117.936 89.7353 119.733 86.5389 120.669L91.9276 126.224C97.1068 123.718 99.1715 119.597 98.8527 114.287ZM97.2704 89.2349C96.7923 81.2692 90.5656 76.1175 83.0295 76.5699C75.4934 77.0223 69.9277 82.8819 70.4059 90.8475C70.8841 98.8132 77.1107 103.965 84.6469 103.513C92.183 103.06 97.7486 97.2005 97.2704 89.2349ZM90.4372 89.6451C90.6809 93.706 87.9891 95.8662 84.2015 96.0935C80.4139 96.3209 77.483 94.4983 77.2392 90.4373C76.9954 86.3764 79.6873 84.2163 83.4749 83.9889C87.2624 83.7615 90.1934 85.5842 90.4372 89.6451ZM95.2158 60.2305C94.8853 54.7249 93.1351 51.0287 87.9809 51.3381C84.0371 51.5749 81.5389 54.3504 81.9866 61.8084C81.7546 57.9428 80.7649 52.555 75.1812 52.8902C71.6669 53.1012 68.665 55.3192 69.0471 61.6839L69.8863 75.6628L96.0479 74.0923L95.2158 60.2305ZM75.3955 62.9879C75.2947 61.3088 75.8218 60.2975 77.2275 60.2131C78.5941 60.1311 79.1994 61.0744 79.3002 62.7535L79.6166 68.0248L75.7119 68.2592L75.3955 62.9879ZM84.7316 61.8396C84.6004 59.653 85.2493 58.7127 86.6941 58.6259C88.0998 58.5416 88.8956 59.3951 89.0268 61.5818L89.3784 67.4388L85.0832 67.6967L84.7316 61.8396ZM93.3844 29.7221L87.1368 30.0972L87.8939 42.7094L67.9798 43.9049L68.4018 50.9334L94.5634 49.3629L93.3844 29.7221ZM92.7455 19.0787L84.3894 19.5803L65.972 10.4578L66.4924 19.1263L72.4261 21.3565L78.5777 23.2993L72.7027 25.9641L67.0761 28.8491L67.6105 37.7519L84.7332 26.6135L93.1674 26.1072L92.7455 19.0787Z" fill="white" fill-opacity="0.02"/>
<rect x="57.8915" y="125.494" width="29.6345" height="14.8173" transform="rotate(-63.4353 57.8915 125.494)" fill="url(#paint0_linear_107_208)"/>
<path d="M69.4329 121.295L68.8519 120.665L69.452 119.465L70.3044 119.552L70.5673 119.026L67.1703 118.716L66.8947 119.267L69.1806 121.799L69.4329 121.295ZM67.8934 119.624L67.4566 119.214L68.0461 119.318L68.9579 119.414L68.5147 120.3L67.8934 119.624ZM71.7295 118.673L70.3893 118.003C70.7413 118.095 71.1039 118.058 71.3096 117.647C71.5641 117.138 71.3138 116.61 70.648 116.277C69.9822 115.944 69.4097 116.061 69.1594 116.561C68.9538 116.973 69.1382 117.293 69.4266 117.522L68.8753 117.246L68.6378 117.721L71.492 119.148L71.7295 118.673ZM70.0331 117.825L69.7786 117.698C69.4394 117.528 69.2846 117.276 69.4521 116.941C69.6005 116.644 69.9377 116.532 70.4042 116.765C70.8707 116.998 70.9831 117.335 70.8346 117.632C70.6671 117.967 70.3724 117.995 70.0331 117.825ZM72.9057 116.321L71.5655 115.651C71.9175 115.742 72.2801 115.706 72.4858 115.295C72.7403 114.786 72.49 114.258 71.8242 113.925C71.1584 113.592 70.5858 113.709 70.3356 114.209C70.1299 114.62 70.3144 114.941 70.6028 115.17L70.0515 114.894L69.814 115.369L72.6682 116.796L72.9057 116.321ZM71.2093 115.473L70.9548 115.346C70.6155 115.176 70.4607 114.924 70.6283 114.589C70.7767 114.292 71.1138 114.179 71.5803 114.413C72.0469 114.646 72.1592 114.983 72.0108 115.28C71.8433 115.615 71.5486 115.642 71.2093 115.473ZM73.293 113.574L70.4516 112.154L70.2141 112.628L73.0555 114.049L73.293 113.574ZM74.4539 113.023C74.6214 112.688 74.5939 112.372 74.2525 112.016L72.4246 110.148L72.1617 110.674L73.1477 111.628L73.6248 112.052L72.9993 111.925L71.6422 111.713L71.3813 112.234L73.6609 112.52L73.8072 112.228L73.9026 112.323C74.0934 112.514 74.1146 112.652 74.0341 112.813C73.9386 113.004 73.7563 113.072 73.5442 113.104L73.8135 113.519C74.0319 113.485 74.3055 113.32 74.4539 113.023Z" fill="white"/>
<path d="M43.6081 115.535C44.1902 114.37 43.8689 113.534 42.5776 112.888L40.1348 111.667L39.7785 112.379L42.2277 113.604C43.0738 114.027 43.2805 114.472 42.9243 115.185C42.5744 115.885 42.0877 115.999 41.2417 115.576L38.7925 114.351L38.4363 115.064L40.8791 116.285C42.1705 116.931 43.0388 116.673 43.6081 115.535ZM44.9787 112.634L43.7827 110.669L46.0856 110.421L46.5372 109.517L43.6269 109.931L42.2273 107.482L41.798 108.34L42.9462 110.211L40.7706 110.395L40.3158 111.305L43.0798 110.93L44.5302 113.531L44.9787 112.634ZM48.2282 106.135C48.8897 104.812 48.4285 103.699 47.1117 103.041C45.7949 102.382 44.6244 102.687 43.966 104.004L43.1613 105.614L47.4235 107.745L48.2282 106.135ZM44.5576 104.411C44.9997 103.527 45.6677 103.257 46.7364 103.791C47.8051 104.326 47.9896 105.022 47.5507 105.9L47.1467 106.708L44.1569 105.213L44.5576 104.411ZM50.3323 102.086C50.6758 101.399 50.5741 100.823 50.3355 100.41L49.658 100.62C49.8616 100.865 50.0206 101.246 49.7503 101.787C49.5053 102.277 49.0441 102.452 48.4716 102.213L49.5785 99.9994C49.5212 99.9549 49.394 99.8754 49.2795 99.8181C48.4207 99.3888 47.546 99.5955 47.0816 100.524C46.6459 101.396 46.9862 102.321 47.9595 102.808C48.9265 103.291 49.8711 103.008 50.3323 102.086ZM47.6542 100.811C47.8895 100.34 48.2967 100.193 48.8119 100.387L48.0168 101.978C47.5428 101.669 47.4347 101.249 47.6542 100.811ZM51.9526 98.8454C52.2802 98.1902 52.2325 97.5222 51.6218 97.2169C51.1765 96.9942 50.7694 97.1087 50.2446 97.7131L49.9615 98.0407C49.6434 98.4065 49.478 98.5305 49.2554 98.4192C49.0454 98.3142 49.0232 98.0725 49.1599 97.7989C49.3603 97.3982 49.7293 97.1692 50.1809 97.1246L49.9456 96.4821C49.5003 96.498 48.95 96.8034 48.6192 97.465C48.263 98.1775 48.3807 98.8168 48.9596 99.1062C49.5257 99.3893 49.9678 99.0458 50.3273 98.6132L50.6358 98.2506C50.8902 97.9484 51.0843 97.7512 51.3133 97.8657C51.5359 97.977 51.5455 98.2283 51.3928 98.5337C51.1161 99.0871 50.6072 99.3098 50.2096 99.3257L50.445 99.9682C51.0525 99.9777 51.6218 99.507 51.9526 98.8454ZM49.5754 94.5983L48.8502 94.2357L48.494 94.9482L49.2192 95.3108L49.5754 94.5983ZM53.1124 96.3668L50.0144 94.8178L49.6581 95.5303L52.7561 97.0792L53.1124 96.3668ZM53.1997 93.8701C53.5814 93.1067 53.381 92.3624 52.7258 92.0348C52.3377 91.8408 51.9306 91.8599 51.5807 92.0666L51.234 91.1697L50.6552 91.739L51.3231 92.2639C51.1863 92.3943 51.0655 92.5565 50.9669 92.7537C50.5852 93.5171 50.7888 94.2709 51.444 94.5985C51.8384 94.7957 52.2582 94.7671 52.6049 94.5508C52.659 94.9356 52.8117 95.3141 53.0916 95.4541C53.327 95.5718 53.5464 95.4986 53.7214 95.3078C53.6419 95.6418 53.6609 96.0012 53.9536 96.1475C54.3416 96.3415 54.8664 95.9757 55.299 95.1106C55.862 93.9846 55.7029 93.1894 55.1177 92.8968C54.6533 92.6646 54.2366 92.8777 53.9281 93.4948L53.4287 94.4935C53.2856 94.7798 53.1616 94.8211 53.0025 94.7416C52.8944 94.6875 52.8085 94.5571 52.7417 94.4522C52.923 94.3122 53.0789 94.1118 53.1997 93.8701ZM52.6908 93.6156C52.5222 93.9528 52.1724 94.1118 51.7843 93.9178C51.3963 93.7238 51.3136 93.3485 51.4821 93.0113C51.6507 92.6742 52.0006 92.5151 52.3886 92.7091C52.7767 92.9032 52.8594 93.2785 52.6908 93.6156ZM54.7806 94.8116C54.4975 95.3777 54.2367 95.5654 54.0076 95.4509C53.8995 95.3968 53.8359 95.2696 53.8009 95.1646L54.4466 93.8733C54.5833 93.5997 54.7201 93.5011 54.8855 93.5838C55.1463 93.7142 55.1145 94.1436 54.7806 94.8116ZM55.4699 91.6516L53.7333 90.7833C53.2243 90.5288 52.9762 90.1821 53.2371 89.6605C53.4756 89.1834 53.8 89.1865 54.1817 89.3774L56.122 90.3475L56.4814 89.6286L54.3248 88.5504C53.6823 88.2292 53.1353 88.4168 52.8331 89.0212C52.5246 89.6382 52.7854 90.1662 53.218 90.5256L52.3719 90.1026L52.0157 90.8151L55.1137 92.3641L55.4699 91.6516ZM57.5913 87.5677C57.9348 86.8807 57.8331 86.305 57.5945 85.8915L56.917 86.1014C57.1206 86.3464 57.2796 86.728 57.0093 87.2688C56.7643 87.7586 56.3031 87.9335 55.7306 87.695L56.8375 85.4812C56.7802 85.4367 56.653 85.3572 56.5385 85.2999C55.6797 84.8705 54.805 85.0773 54.3406 86.006C53.9049 86.8776 54.2452 87.8031 55.2185 88.2898C56.1855 88.7732 57.1301 88.4902 57.5913 87.5677ZM54.9132 86.2923C55.1485 85.8215 55.5557 85.6752 56.0709 85.8693L55.2758 87.4596C54.8018 87.1511 54.6937 86.7312 54.9132 86.2923ZM58.8929 84.8056L57.188 83.9532C56.6727 83.6955 56.431 83.1612 56.6091 82.8049C56.7141 82.595 56.8954 82.5823 57.0671 82.6682C57.2452 82.7572 57.4011 82.9544 57.452 83.1071L57.8178 82.3755C57.751 82.2706 57.5697 82.0765 57.2707 81.9271C56.8127 81.698 56.4151 81.8571 56.2211 82.2451C55.9443 82.7986 56.2338 83.3329 56.6727 83.6955L55.7948 83.2566L55.4386 83.9691L58.5366 85.5181L58.8929 84.8056Z" fill="white"/>
<path d="M50.1577 120.749L49.4558 119.969L50.094 118.692L51.1394 118.785L51.2942 118.476L47.8824 118.196L47.7403 118.48L50.0113 121.042L50.1577 120.749ZM48.4591 118.855L48.0923 118.486L48.6076 118.558L49.7993 118.667L49.2586 119.748L48.4591 118.855ZM51.8298 117.521C52.0313 117.118 51.8595 116.762 51.569 116.537L52.1246 116.815L52.2624 116.539L49.4209 115.119L49.2831 115.394L50.6487 116.077C50.2946 115.98 49.9065 116.056 49.7051 116.459C49.44 116.989 49.7009 117.517 50.3412 117.837C50.9859 118.159 51.5648 118.051 51.8298 117.521ZM50.4833 117.553C49.915 117.269 49.7963 116.86 49.9808 116.491C50.1864 116.079 50.5766 116.041 50.9159 116.211L51.2976 116.402C51.6368 116.571 51.8447 116.908 51.639 117.32C51.4545 117.689 51.0558 117.839 50.4833 117.553ZM52.9899 115.084L51.338 113.299L51.1896 113.596L52.2074 114.656L52.6951 115.144L52.0081 115.055L50.5492 114.877L50.3965 115.182L52.816 115.432L52.9899 115.084ZM53.9449 113.28C54.2248 112.72 54.0064 112.118 53.3618 111.796C52.7172 111.474 52.1044 111.66 51.8245 112.22C51.5446 112.78 51.7651 113.378 52.4097 113.7C53.0543 114.022 53.665 113.84 53.9449 113.28ZM53.7074 113.162C53.5081 113.56 53.0883 113.69 52.5497 113.42C52.0068 113.149 51.8541 112.733 52.0535 112.335C52.2549 111.932 52.679 111.804 53.2218 112.076C53.7605 112.345 53.9089 112.759 53.7074 113.162ZM52.3677 110.328L51.9266 110.107L51.7867 110.387L52.2277 110.608L52.3677 110.328ZM54.7681 111.528L52.7324 110.51L52.5924 110.79L54.6281 111.808L54.7681 111.528ZM55.4446 110.292C55.5761 110.029 55.5527 109.768 55.4488 109.604L55.1286 109.566C55.2389 109.706 55.2962 109.92 55.205 110.103C55.1159 110.281 54.959 110.393 54.6664 110.247L53.4407 109.634L53.7821 108.951L53.5658 108.843L53.2244 109.526L52.724 109.276L52.794 109.655L53.0866 109.802L52.9212 110.132L53.1375 110.241L53.3029 109.91L54.6049 110.561C54.9738 110.745 55.2898 110.601 55.4446 110.292ZM56.7994 107.465C57.2468 106.57 56.9457 105.869 56.0466 105.419C55.1475 104.969 54.4053 105.15 53.9579 106.045L53.4893 106.982L56.3308 108.403L56.7994 107.465ZM54.1848 106.206C54.5368 105.502 55.0818 105.292 55.9045 105.703C56.7273 106.115 56.8863 106.676 56.5343 107.38L56.2247 108L53.8752 106.825L54.1848 106.206ZM55.4614 104.14L55.0203 103.92L54.8804 104.2L55.3214 104.42L55.4614 104.14ZM57.8617 105.34L55.8261 104.323L55.6861 104.603L57.7218 105.62L57.8617 105.34ZM57.9255 103.644C58.163 103.169 58.0188 102.705 57.5947 102.492C57.3444 102.367 57.0815 102.374 56.8546 102.499L56.6002 101.916L56.3436 102.153L56.7528 102.565C56.6447 102.654 56.5493 102.77 56.4751 102.919C56.2397 103.389 56.3818 103.858 56.8059 104.07C57.0646 104.199 57.336 104.187 57.5607 104.055C57.6074 104.291 57.7134 104.503 57.8788 104.585C58.0018 104.647 58.1333 104.628 58.2414 104.507C58.2245 104.7 58.2541 104.969 58.4662 105.075C58.7461 105.215 59.0811 104.98 59.3398 104.462C59.6664 103.809 59.59 103.283 59.2126 103.095C58.9157 102.946 58.6613 103.095 58.4831 103.451L58.1672 104.083C58.0569 104.303 57.9552 104.337 57.8407 104.28C57.7431 104.231 57.6689 104.115 57.6244 104.013C57.7431 103.924 57.847 103.801 57.9255 103.644ZM57.7092 103.536C57.5586 103.837 57.2512 103.953 56.9416 103.799C56.632 103.644 56.5408 103.328 56.6913 103.027C56.844 102.721 57.1515 102.605 57.4611 102.76C57.7707 102.914 57.8618 103.23 57.7092 103.536ZM59.1193 104.352C58.9263 104.738 58.6994 104.906 58.5001 104.806C58.3687 104.74 58.305 104.571 58.2923 104.437L58.7058 103.61C58.8267 103.368 58.956 103.29 59.1172 103.37C59.3504 103.487 59.3653 103.86 59.1193 104.352ZM56.9647 101.134L56.5237 100.913L56.3837 101.193L56.8248 101.413L56.9647 101.134ZM59.3651 102.334L57.3294 101.316L57.1895 101.596L59.2252 102.614L59.3651 102.334ZM60.0416 101.097C60.1731 100.834 60.1498 100.573 60.0459 100.41L59.7257 100.372C59.836 100.512 59.8932 100.726 59.802 100.909C59.713 101.087 59.5561 101.199 59.2634 101.053L58.0378 100.44L58.3792 99.7571L58.1629 99.649L57.8215 100.332L57.3211 100.082L57.3911 100.461L57.6837 100.607L57.5183 100.938L57.7346 101.046L57.9 100.716L59.2019 101.367C59.5709 101.551 59.8869 101.407 60.0416 101.097ZM60.6679 99.8341C60.8715 99.4269 60.6891 99.0071 60.4304 98.7929L60.6467 98.9011C60.9054 99.0304 61.0623 98.9392 61.1641 98.7357L61.2595 98.5448L61.0093 98.4197L60.9499 98.5385C60.9012 98.636 60.8397 98.6636 60.7336 98.6106L59.7794 98.1335C59.3257 97.9066 58.927 98.0147 58.6895 98.4897C58.4732 98.9223 58.5665 99.34 58.715 99.5733L59.0076 99.4757C58.8358 99.2573 58.7722 98.9498 58.9249 98.6445C59.0903 98.3137 59.3405 98.2586 59.6458 98.4112L59.6628 98.4197L59.6289 99.3676C59.614 99.7153 59.684 99.9995 59.9512 100.133C60.2226 100.269 60.5004 100.169 60.6679 99.8341ZM60.053 99.8341C59.9003 99.7577 59.8494 99.6051 59.8579 99.3336L59.8749 98.5151L60.2353 98.6954C60.511 98.8332 60.6637 99.2594 60.475 99.6369C60.3753 99.8362 60.2226 99.9189 60.053 99.8341ZM61.6243 97.8153L58.7829 96.3946L58.6429 96.6745L61.4843 98.0952L61.6243 97.8153ZM62.3999 96.264L61.698 95.4837L62.3363 94.2072L63.3817 94.3004L63.5365 93.9909L60.1246 93.711L59.9826 93.9951L62.2536 96.5566L62.3999 96.264ZM60.7014 94.3704L60.3346 94.0015L60.8498 94.0736L62.0415 94.1817L61.5008 95.2632L60.7014 94.3704ZM63.4316 92.6315C63.6691 92.1565 63.5249 91.6921 63.1008 91.4801C62.8506 91.3549 62.5876 91.3613 62.3607 91.4864L62.1063 90.9033L61.8497 91.1408L62.259 91.5522C62.1508 91.6412 62.0554 91.7578 61.9812 91.9063C61.7458 92.377 61.8879 92.8456 62.312 93.0577C62.5707 93.187 62.8421 93.1743 63.0669 93.0428C63.1135 93.2782 63.2195 93.4903 63.3849 93.573C63.5079 93.6345 63.6394 93.6154 63.7475 93.4945C63.7306 93.6875 63.7603 93.9568 63.9723 94.0628C64.2522 94.2027 64.5872 93.9674 64.8459 93.45C65.1725 92.7969 65.0961 92.271 64.7187 92.0823C64.4218 91.9338 64.1674 92.0823 63.9893 92.4385L63.6733 93.0704C63.5631 93.2909 63.4613 93.3249 63.3468 93.2676C63.2492 93.2188 63.175 93.1022 63.1305 93.0004C63.2492 92.9114 63.3531 92.7884 63.4316 92.6315ZM63.2153 92.5233C63.0647 92.8244 62.7573 92.9411 62.4477 92.7863C62.1381 92.6315 62.0469 92.3155 62.1975 92.0144C62.3501 91.7091 62.6576 91.5924 62.9672 91.7472C63.2768 91.902 63.368 92.218 63.2153 92.5233ZM64.6254 93.3397C64.4325 93.7256 64.2056 93.8931 64.0062 93.7935C63.8748 93.7278 63.8112 93.5581 63.7984 93.4245L64.2119 92.5975C64.3328 92.3558 64.4621 92.2773 64.6233 92.3579C64.8565 92.4745 64.8714 92.8477 64.6254 93.3397ZM65.1854 90.799C65.4017 90.3664 65.3296 89.9911 65.1515 89.7218L64.8673 89.7918C65.0221 89.9805 65.1578 90.271 64.9521 90.6823C64.7507 91.0852 64.3584 91.2337 63.841 90.9962L64.6171 89.444C64.5853 89.4228 64.5386 89.3889 64.4878 89.3634C63.8728 89.056 63.3257 89.2171 63.048 89.7727C62.7723 90.324 62.9822 90.9008 63.6438 91.2316C64.3181 91.5687 64.9013 91.3673 65.1854 90.799ZM63.277 89.8872C63.4636 89.514 63.8219 89.3804 64.2927 89.5839L63.6396 90.8902C63.2006 90.623 63.0904 90.2604 63.277 89.8872ZM65.9625 89.1387L64.7835 88.5492C64.4315 88.3732 64.2046 88.0424 64.4188 87.6141C64.5948 87.2621 64.8747 87.2112 65.2055 87.3766L66.5159 88.0318L66.6559 87.7519L65.2818 87.0649C64.8153 86.8316 64.4421 86.9843 64.2407 87.3872C64.0371 87.7943 64.2004 88.1675 64.4951 88.405L63.9268 88.1209L63.7869 88.4008L65.8226 89.4186L65.9625 89.1387ZM67.3988 86.3721C67.6532 85.8632 67.5154 85.3967 67.1443 85.1105L66.8962 85.3204C67.2185 85.5346 67.3627 85.8611 67.1676 86.2513C66.9662 86.6542 66.5442 86.7772 66.0056 86.5079C65.4628 86.2364 65.308 85.8251 65.5094 85.4222C65.7045 85.032 66.0565 84.9535 66.4212 85.0829L66.4403 84.7585C65.9887 84.6334 65.5328 84.803 65.2804 85.3077C64.992 85.8844 65.202 86.4612 65.8636 86.792C66.5251 87.1228 67.1125 86.9447 67.3988 86.3721ZM68.826 85.2035C68.9638 84.9278 68.9151 84.6542 68.6479 84.3722L66.8009 82.3726L66.6546 82.6653L67.7954 83.8718L68.1411 84.2302L67.6491 84.1644L65.9973 83.98L65.8488 84.2768L68.1898 84.5143L68.2641 84.3553L68.4295 84.5334C68.6352 84.7476 68.6648 84.9108 68.5821 85.0762C68.4888 85.2628 68.3171 85.3201 68.1093 85.3222L68.2344 85.5809C68.4252 85.5809 68.6882 85.4791 68.826 85.2035Z" fill="white"/>
<rect x="16.5421" y="104.819" width="29.6345" height="14.8173" transform="rotate(-63.4353 16.5421 104.819)" stroke="white" stroke-width="0.296345"/>
<path d="M27.191 102.405L25.978 101.799L26.6396 100.476L26.3937 100.353L25.7321 101.676L24.5955 101.108L25.3949 99.5089L25.1489 99.3859L24.2096 101.265L27.051 102.685L27.191 102.405ZM28.49 99.9133C28.7 99.4934 28.5303 99.1223 28.2271 98.8806L28.8081 99.1711L28.9459 98.8954L26.9103 97.8776L26.7725 98.1533L27.9472 98.7406C28.3034 98.9188 28.5282 99.2432 28.3077 99.6843C28.1338 100.032 27.8539 100.083 27.5274 99.9196L26.2169 99.2644L26.0791 99.5401L27.4489 100.225C27.9196 100.46 28.2907 100.312 28.49 99.9133ZM29.3834 98.0205L26.5419 96.5998L26.402 96.8797L29.2434 98.3004L29.3834 98.0205ZM29.8203 97.1467L26.9789 95.726L26.8389 96.0059L29.6804 97.4266L29.8203 97.1467ZM30.4969 95.9102C30.6283 95.6473 30.605 95.3864 30.5011 95.2232L30.1809 95.185C30.2912 95.3249 30.3484 95.5391 30.2572 95.7215C30.1682 95.8996 30.0113 96.012 29.7186 95.8657L28.493 95.2529L28.8344 94.5701L28.6181 94.4619L28.2767 95.1447L27.7763 94.8945L27.8463 95.2741L28.1389 95.4204L27.9735 95.7512L28.1898 95.8593L28.3552 95.5285L29.6571 96.1795C30.0261 96.364 30.3421 96.2198 30.4969 95.9102ZM28.6541 93.4781L28.213 93.2576L28.0731 93.5375L28.5141 93.758L28.6541 93.4781ZM31.0545 94.6783L29.0188 93.6605L28.8789 93.9404L30.9145 94.9582L31.0545 94.6783ZM31.4914 93.8044L30.3124 93.2149C29.9604 93.0389 29.7335 92.7082 29.9138 92.3477C30.0728 92.0296 30.3251 91.9596 30.6814 92.1377L31.9961 92.7951L32.1339 92.5194L30.9549 91.9299C30.6029 91.7539 30.376 91.4231 30.5584 91.0584C30.7153 90.7446 30.9676 90.6746 31.3239 90.8527L32.6386 91.5101L32.7785 91.2302L31.4002 90.541C30.9337 90.3078 30.5902 90.4117 30.3951 90.8018C30.2043 91.1835 30.3718 91.5589 30.6729 91.7942C30.2509 91.6097 29.935 91.7221 29.7505 92.0911C29.5618 92.4685 29.725 92.8311 30.024 93.0708L29.4557 92.7866L29.3158 93.0665L31.3515 94.0843L31.4914 93.8044ZM33.5305 89.8322C33.7468 89.3996 33.6747 89.0243 33.4966 88.755L33.2124 88.8249C33.3672 89.0137 33.5029 89.3042 33.2973 89.7155C33.0958 90.1184 32.7035 90.2669 32.1861 90.0294L32.9622 88.4772C32.9304 88.456 32.8838 88.4221 32.8329 88.3966C32.2179 88.0892 31.6708 88.2503 31.3931 88.8059C31.1174 89.3572 31.3273 89.934 31.9889 90.2648C32.6632 90.6019 33.2464 90.4005 33.5305 89.8322ZM31.6221 88.9204C31.8087 88.5472 32.167 88.4136 32.6378 88.6171L31.9847 89.9234C31.5457 89.6562 31.4355 89.2936 31.6221 88.9204Z" fill="white"/>
<rect x="31.9153" y="74.0723" width="29.6345" height="14.8173" transform="rotate(-63.4353 31.9153 74.0723)" stroke="white" stroke-width="0.296345"/>
<path d="M43.4616 69.9697C43.8645 69.1639 43.4956 68.3008 42.6686 67.8874C41.8501 67.4781 40.9383 67.7008 40.5354 68.5065C40.1325 69.3123 40.5015 70.1754 41.32 70.5846C42.1469 70.9981 43.0587 70.7754 43.4616 69.9697ZM43.2008 69.8339C42.8637 70.5083 42.1618 70.6397 41.4663 70.292C40.7792 69.9485 40.459 69.306 40.7962 68.6317C41.1312 67.9616 41.8373 67.8322 42.5244 68.1757C43.2199 68.5235 43.5358 69.1639 43.2008 69.8339ZM44.501 67.7848L43.3221 67.1953C42.9701 67.0193 42.7432 66.6885 42.9573 66.2602C43.1333 65.9082 43.4132 65.8573 43.744 66.0227L45.0545 66.6779L45.1944 66.398L43.8204 65.7109C43.3539 65.4777 42.9807 65.6304 42.7792 66.0333C42.5757 66.4404 42.7389 66.8136 43.0337 67.0511L42.4654 66.767L42.3254 67.0469L44.3611 68.0647L44.501 67.7848ZM45.885 65.1229C46.0737 64.7455 46.0652 64.3278 45.675 64.1327C45.3866 63.9885 45.1279 64.0712 44.8099 64.4423L44.6063 64.6798C44.3858 64.9406 44.2331 65.0551 44.0211 64.9491C43.809 64.843 43.7814 64.6119 43.9044 64.3659C44.0635 64.0479 44.3222 63.9122 44.6445 63.9567L44.5936 63.6662C44.2543 63.6238 43.8959 63.7998 43.6797 64.2324C43.4697 64.6522 43.5503 65.0424 43.9023 65.2184C44.267 65.4007 44.5533 65.1675 44.7717 64.9109L44.9731 64.667C45.1746 64.4232 45.3421 64.279 45.5542 64.385C45.7662 64.491 45.7874 64.7243 45.6517 64.9957C45.446 65.4071 45.0898 65.547 44.7823 65.4728L44.8353 65.7591C45.2955 65.8354 45.6772 65.5385 45.885 65.1229ZM44.1714 62.443L43.7304 62.2225L43.5904 62.5024L44.0315 62.7229L44.1714 62.443ZM46.5718 63.6432L44.5361 62.6254L44.3962 62.9053L46.4318 63.9231L46.5718 63.6432ZM47.2483 62.4067C47.3798 62.1438 47.3565 61.883 47.2526 61.7197L46.9324 61.6815C47.0426 61.8215 47.0999 62.0357 47.0087 62.218C46.9197 62.3961 46.7627 62.5085 46.4701 62.3622L45.2445 61.7494L45.5859 61.0666L45.3696 60.9585L45.0282 61.6413L44.5278 61.391L44.5977 61.7706L44.8904 61.9169L44.725 62.2477L44.9413 62.3559L45.1067 62.0251L46.4086 62.676C46.7776 62.8605 47.0935 62.7163 47.2483 62.4067ZM48.0559 60.7809C48.2722 60.3483 48.2001 59.973 48.022 59.7037L47.7379 59.7737C47.8927 59.9624 48.0284 60.2529 47.8227 60.6643C47.6212 61.0672 47.229 61.2156 46.7116 60.9781L47.4876 59.4259C47.4558 59.4047 47.4092 59.3708 47.3583 59.3453C46.7434 59.0379 46.1963 59.199 45.9185 59.7546C45.6428 60.3059 45.8528 60.8827 46.5144 61.2135C47.1887 61.5506 47.7718 61.3492 48.0559 60.7809ZM46.1475 59.8691C46.3341 59.4959 46.6925 59.3623 47.1632 59.5659L46.5101 60.8721C46.0712 60.6049 45.9609 60.2423 46.1475 59.8691Z" fill="white"/>
<rect x="47.2885" y="43.3253" width="29.6345" height="14.8173" transform="rotate(-63.4353 47.2885 43.3253)" stroke="white" stroke-width="0.296345"/>
<path d="M59.3032 39.2401L58.9172 39.0472C59.1356 38.5467 59.0572 38.0357 58.5822 37.7982C58.0606 37.5374 57.6937 37.847 57.3735 38.2329L57.3481 38.2626L56.2921 37.7346C56.4957 37.4865 56.7819 37.3699 57.1424 37.4229L57.0724 37.0964C56.6483 37.054 56.2815 37.2363 56.0207 37.5989L55.6135 37.3954L55.5033 37.6159L55.8892 37.8088C55.8828 37.8216 55.8786 37.83 55.8722 37.8428C55.6326 38.322 55.6814 38.8924 56.1861 39.1447C56.6823 39.3928 57.047 39.0981 57.3396 38.7461L57.4626 38.5955L58.5398 39.1341C58.3278 39.4522 57.9567 39.7173 57.4732 39.624L57.5517 39.9335C58.1093 40.0056 58.5334 39.6982 58.7985 39.2635L59.1929 39.4607L59.3032 39.2401ZM57.1254 38.5277C56.8519 38.8521 56.6208 38.9963 56.3112 38.8415C56.0016 38.6867 55.9613 38.322 56.1331 37.9785C56.1394 37.9658 56.1458 37.953 56.1521 37.9403L57.1869 38.4577L57.1254 38.5277ZM58.4507 38.0824C58.7858 38.2499 58.7964 38.5892 58.6585 38.9178L57.6237 38.4004C57.9121 38.0675 58.1369 37.9255 58.4507 38.0824ZM60.5446 35.697L60.2986 35.574L59.6943 36.7826L59.5332 37.1474L59.4271 36.7339L59.1663 35.909C59.0476 35.5316 58.8567 34.9272 58.3987 34.6982C57.9661 34.4819 57.5039 34.5689 57.2282 35.1202C56.9038 35.7691 57.1519 36.3967 57.7414 36.6173L58.0361 36.4413C57.4318 36.2292 57.2282 35.7882 57.4869 35.2708C57.6799 34.8848 58.0106 34.8594 58.2736 34.9909C58.6086 35.1584 58.7549 35.5443 58.9013 35.9832L59.3911 37.4633L59.6074 37.5715L60.5446 35.697ZM61.3368 34.2187C61.7184 33.4553 61.2583 32.7746 60.4313 32.3612C59.6128 31.9519 58.7922 31.9922 58.4105 32.7556C58.0288 33.5189 58.4911 34.1954 59.3096 34.6046C60.1366 35.0181 60.9551 34.9821 61.3368 34.2187ZM61.0759 34.083C60.7748 34.6852 60.145 34.6619 59.4538 34.3162C58.771 33.9748 58.3702 33.4829 58.6713 32.8807C58.9724 32.2785 59.6043 32.3081 60.2871 32.6495C60.9784 32.9952 61.377 33.4808 61.0759 34.083ZM62.6745 31.5432C63.0561 30.7799 62.596 30.0992 61.769 29.6857C60.9505 29.2765 60.1299 29.3168 59.7482 30.0801C59.3665 30.8435 59.8288 31.5199 60.6473 31.9292C61.4743 32.3427 62.2928 32.3066 62.6745 31.5432ZM62.4136 31.4075C62.1125 32.0097 61.4828 31.9864 60.7915 31.6408C60.1087 31.2994 59.7079 30.8074 60.009 30.2052C60.3101 29.603 60.942 29.6327 61.6248 29.9741C62.3161 30.3197 62.7147 30.8053 62.4136 31.4075ZM63.6154 29.5553L62.6866 29.0909L62.3685 28.2215L64.4084 27.9692L64.5802 27.6257L62.2689 27.9226L61.69 26.3025L61.514 26.6545L62.1416 28.3785L62.3495 28.9383L61.8851 28.6902L60.7739 28.1346L60.634 28.4145L63.4754 29.8352L63.6154 29.5553Z" fill="white"/>
<path d="M100.534 59.092L100.11 58.8799L99.5646 59.9698L99.395 60.4151L99.3144 59.9614L99.1639 59.3931C99.0642 58.9669 98.8733 58.3625 98.4153 58.1335C97.9488 57.9003 97.4696 58.0105 97.1833 58.5831C96.8568 59.2362 97.0413 59.9062 97.6159 60.1777L98.1057 59.919C97.5459 59.6709 97.4102 59.2743 97.6202 58.8545C97.758 58.5788 97.9912 58.547 98.1948 58.6488C98.462 58.7824 98.5807 59.0856 98.7101 59.4949L99.1533 60.941L99.518 61.1234L100.534 59.092ZM101.605 56.9491L100.965 56.629L101.204 56.1497L100.789 55.9419L100.549 56.4212L98.7636 55.5285L98.5113 56.0331L99.6479 58.3402L100.017 58.5247L100.727 57.104L101.368 57.4241L101.605 56.9491ZM99.8642 57.791L99.1453 56.313L100.312 56.8961L99.8642 57.791ZM102.6 54.96L102.019 54.3302L102.619 53.13L103.471 53.217L103.734 52.6911L100.337 52.3815L100.061 52.9329L102.347 55.4647L102.6 54.96ZM101.06 53.2891L100.623 52.8798L101.213 52.9837L102.125 53.0792L101.681 53.9655L101.06 53.2891ZM104.896 52.3388L103.556 51.6688C103.908 51.7599 104.271 51.7239 104.476 51.3125C104.731 50.8036 104.481 50.2756 103.815 49.9427C103.149 49.6098 102.576 49.7264 102.326 50.2268C102.121 50.6382 102.305 50.9584 102.593 51.1874L102.042 50.9118L101.805 51.3868L104.659 52.8138L104.896 52.3388ZM103.2 51.4906L102.945 51.3634C102.606 51.1938 102.451 50.9414 102.619 50.6064C102.767 50.3095 103.104 50.1972 103.571 50.4304C104.037 50.6637 104.15 51.0008 104.001 51.2977C103.834 51.6327 103.539 51.6603 103.2 51.4906ZM106.072 49.9864L104.732 49.3164C105.084 49.4075 105.447 49.3715 105.653 48.9601C105.907 48.4512 105.657 47.9232 104.991 47.5903C104.325 47.2574 103.753 47.374 103.502 47.8744C103.297 48.2858 103.481 48.606 103.77 48.835L103.218 48.5594L102.981 49.0343L105.835 50.4614L106.072 49.9864ZM104.376 49.1382L104.122 49.011C103.782 48.8414 103.627 48.589 103.795 48.254C103.943 47.9571 104.281 47.8448 104.747 48.078C105.214 48.3112 105.326 48.6484 105.178 48.9453C105.01 49.2803 104.715 49.3079 104.376 49.1382ZM106.46 47.2396L103.618 45.8189L103.381 46.2939L106.222 47.7146L106.46 47.2396ZM104.59 45.0832L104.107 44.8415L103.87 45.3165L104.353 45.5582L104.59 45.0832ZM106.948 46.2622L104.883 45.2295L104.646 45.7045L106.711 46.7372L106.948 46.2622ZM107.7 44.8649C107.929 44.4069 107.861 44.0231 107.702 43.7474L107.251 43.8874C107.386 44.0507 107.492 44.3051 107.312 44.6656C107.149 44.9922 106.841 45.1088 106.46 44.9498L107.198 43.4739C107.159 43.4442 107.075 43.3912 106.998 43.353C106.426 43.0668 105.843 43.2046 105.533 43.8238C105.242 44.4048 105.469 45.0219 106.118 45.3463C106.763 45.6686 107.393 45.4799 107.7 44.8649ZM105.915 44.0146C106.072 43.7008 106.343 43.6033 106.686 43.7326L106.156 44.7928C105.84 44.5872 105.768 44.3073 105.915 44.0146ZM108.756 42.7637C108.962 42.3523 108.773 42.0406 108.489 41.8137L109.036 42.0872L109.273 41.6123L106.432 40.1916L106.194 40.6665L107.526 41.3324C107.17 41.2391 106.803 41.2836 106.597 41.695C106.347 42.1954 106.597 42.7234 107.263 43.0563C107.929 43.3892 108.502 43.2726 108.756 42.7637ZM107.507 42.5686C107.045 42.3375 106.928 41.9982 107.077 41.7013C107.244 41.3663 107.539 41.3387 107.878 41.5084L108.137 41.6377C108.476 41.8073 108.627 42.0576 108.461 42.3883C108.311 42.6895 107.974 42.8018 107.507 42.5686Z" fill="white"/>
<path d="M95.5718 63.4907C95.5612 63.5053 95.552 63.5238 95.5467 63.5411C95.3505 63.9002 94.9052 64.042 94.5341 63.8565C94.1551 63.667 94.0027 63.2097 94.1922 62.8307C94.3817 62.4517 94.8416 62.3006 95.218 62.4888C95.5877 62.677 95.7415 63.1183 95.5718 63.4907Z" stroke="white" stroke-width="0.444518" stroke-linecap="round" stroke-linejoin="round"/>
<path d="M97.365 64.7285C97.6075 64.3959 97.744 63.9638 97.6963 63.5888C97.634 63.0904 97.2258 62.8864 96.7898 63.1355C96.4598 63.325 96.1934 63.6988 96.0755 64.0937" stroke="white" stroke-width="0.444518" stroke-linecap="round" stroke-linejoin="round"/>
<path d="M93.9776 66.6794C93.9829 66.6621 93.9921 66.6436 94.0027 66.629C94.1724 66.2566 94.0186 65.8153 93.6475 65.6297C93.2685 65.4402 92.8113 65.5926 92.6218 65.9717C92.4323 66.3507 92.5873 66.8093 92.9637 66.9974C93.3361 67.1803 93.7814 67.0385 93.9776 66.6794Z" stroke="white" stroke-width="0.444518" stroke-linecap="round" stroke-linejoin="round"/>
<path d="M96.0436 67.3712C95.923 67.7648 95.6593 68.1332 95.3306 68.3201C94.8946 68.5692 94.4864 68.3651 94.4241 67.8668C94.3778 67.4891 94.5169 67.0518 94.7621 66.7204" stroke="white" stroke-width="0.444518" stroke-linecap="round" stroke-linejoin="round"/>
<path d="M96.7567 66.071C96.7461 66.0856 96.7368 66.1042 96.7315 66.1214C96.5353 66.4806 96.09 66.6224 95.719 66.4368C95.3399 66.2473 95.1875 65.7901 95.377 65.4111C95.5665 65.032 96.0264 64.8809 96.4028 65.0691C96.7726 65.2573 96.9289 65.7 96.7567 66.071Z" stroke="white" stroke-width="0.444518" stroke-linecap="round" stroke-linejoin="round"/>
<path d="M97.206 67.2598C97.2683 67.7581 97.6765 67.9622 98.1125 67.7131C98.6081 67.4308 98.9554 66.7363 98.8838 66.1704C98.8215 65.6721 98.4133 65.468 97.9773 65.7172C97.4856 65.9981 97.1371 66.6953 97.206 67.2598Z" stroke="white" stroke-width="0.444518" stroke-linecap="round" stroke-linejoin="round"/>
</g>
<defs>
<filter id="filter0_f_107_208" x="0.271914" y="0.201298" width="131.073" height="148.067" filterUnits="userSpaceOnUse" color-interpolation-filters="sRGB">
<feFlood flood-opacity="0" result="BackgroundImageFix"/>
<feBlend mode="normal" in="SourceGraphic" in2="BackgroundImageFix" result="shape"/>
<feGaussianBlur stdDeviation="3.36404" result="effect1_foregroundBlur_107_208"/>
</filter>
<linearGradient id="paint0_linear_107_208" x1="72.7087" y1="125.494" x2="72.7087" y2="140.311" gradientUnits="userSpaceOnUse">
<stop stop-color="#CE9FFC"/>
<stop offset="0.505208" stop-color="#A582F7"/>
<stop offset="1" stop-color="#7367F0"/>
</linearGradient>
<clipPath id="clip0_107_208">
<rect width="113" height="75" fill="white" transform="translate(7 108) rotate(-63.4353)"/>
</clipPath>
</defs>
</svg>
