<svg width="274" height="46" viewBox="0 0 274 46" fill="none" xmlns="http://www.w3.org/2000/svg">
<path fill-rule="evenodd" clip-rule="evenodd" d="M5.63633 12.8142C6.22845 11.3673 7.01236 10.2432 7.98844 9.43061C8.11436 9.37856 8.25037 9.36072 8.38637 9.34289C8.52198 9.33633 8.84915 9.33645 9.37874 9.35492C9.67171 9.36513 9.91882 9.39633 10.143 9.43801C10.3668 9.49096 10.5894 9.57775 10.8221 9.69875C11.0544 9.83102 11.3305 9.99869 11.6385 10.2239L7.50389 13.2857L8.42398 14.0741L8.05096 24.74C7.04292 24.2082 6.21455 23.3778 5.68585 22.366C4.9448 20.9743 4.6147 19.1227 4.69474 16.8339C4.72685 15.5933 5.0446 14.2498 5.63633 12.8142ZM5.40762 8.70847C5.64425 8.71672 5.9469 8.77242 6.31599 8.86431C6.68507 8.9562 7.02035 9.04691 7.33309 9.13684C5.09026 10.0407 3.32114 11.5933 2.03621 13.8175C0.918496 15.7766 0.299953 17.9789 0.231965 20.2455C0.130627 23.1431 1.04673 25.6585 2.99154 27.7922C4.93635 29.9258 7.3565 31.0487 10.2411 31.1493C13.0243 31.2463 15.428 30.2577 17.4181 28.1936C19.4082 26.1295 20.4652 23.649 20.5665 20.7513C20.2861 21.3511 19.9641 21.8479 19.6231 22.2424C19.1888 22.724 18.6994 23.1697 18.1782 23.5579C17.772 23.8824 17.4023 24.1292 17.0809 24.2873C16.7595 24.4454 16.3471 24.6229 15.8326 24.8195L16.3302 10.5907C16.9703 10.3534 17.4868 10.1005 17.8798 9.83196C18.2723 9.57472 18.7035 9.18336 19.1727 8.66917C20.3783 7.42431 21.071 6.00353 21.2614 4.42978C20.397 4.95277 19.6279 5.33234 18.9423 5.57936C18.2572 5.81511 17.4959 5.96918 16.6593 6.01903C16.5241 6.01431 16.3434 6.0193 16.106 6.0336C15.182 6.00138 13.8199 5.59266 12.0198 4.80742C10.2196 4.02218 8.7899 3.6111 7.73071 3.57416C5.64613 3.50148 3.94416 4.42423 2.61433 6.31949C1.4268 8.01652 0.779977 10.0598 0.695989 12.4613C0.879371 11.7339 1.28693 11.0483 1.91867 10.4043C2.38673 9.92389 2.92005 9.51352 3.50654 9.19531C4.08256 8.85417 4.72027 8.6845 5.40762 8.70847ZM23.8599 31.421L27.4307 27.7074L25.759 25.8316L26.1182 15.5603L27.133 14.9297L29.8203 17.123L29.3464 30.6753C29.3196 31.442 29.2516 32.0944 29.1425 32.6324C29.0459 33.137 28.8149 33.6144 28.4852 34.0093L27.4739 35.1819C27.0156 35.7078 26.4597 36.1173 25.7951 36.4102C27.1182 36.3209 28.2102 36.0655 29.0602 35.6323C29.9215 35.1995 30.8147 34.4969 31.7396 33.5357C32.4192 32.8144 32.9406 32.0988 33.293 31.3774C33.6574 30.6337 33.8995 29.8407 34.0293 29.0324L34.5605 13.8453L33.3746 13.883L29.7545 11.262L26.9955 13.3783L26.1444 12.8745L26.407 5.36553L25.6778 3.63553L22.0419 6.95176L21.3609 26.4233L20.2463 27.6488L23.8599 31.421ZM35.7743 27.5242L41.9887 31.7709L48.2507 25.6225L44.8901 27.842L40.9684 24.8154L41.0623 22.132L48.4393 17.0046L44.0802 10.6778L36.6003 15.5194L36.2107 26.6589L35.7743 27.5242ZM57.5966 8.3947L57.3383 15.7797C56.8068 15.8176 56.3754 15.8929 56.0439 16.0168C55.7124 16.1407 55.3552 16.354 54.9723 16.6567C53.8844 17.4428 53.3294 18.4733 53.2844 19.7586C53.2589 20.1641 53.3015 20.5607 53.4008 20.948C53.7836 20.6453 54.1517 20.4436 54.5046 20.3543C54.8687 20.2654 55.3101 20.2244 55.8397 20.2428C56.0989 20.2519 56.3118 20.2932 56.468 20.3438C56.6237 20.4056 56.8568 20.5154 57.1668 20.6842L56.9129 27.9452L62.1745 33.6262L67.367 28.7048L73.2284 34.0116L82.3272 25.7834L82.8383 11.1713L77.5308 6.79822L73.3812 10.2884L68.0207 6.46661L62.9868 10.4001L63.0708 7.99858C63.0984 7.20934 62.5662 6.29899 61.4632 5.25585C61.1334 5.00729 60.8153 4.74785 60.5198 4.4892C60.2242 4.23055 60.0565 3.86347 60.0276 3.39963C59.9956 3.02599 59.9861 2.65314 59.9882 2.2694C60.0193 1.37869 60.3488 0.667715 60.9754 0.170291C60.7516 0.117334 60.5271 0.0869265 60.3021 0.0677936C59.119 0.0265389 58.0537 0.48609 57.1179 1.43556C56.1705 2.39592 55.6816 3.47386 55.639 4.69154C55.6327 4.87193 55.6461 5.13204 55.6914 5.4497C55.8718 6.74288 56.5031 7.72442 57.5966 8.3947ZM83.2618 29.3832L88.0319 32.9925L91.6988 29.7564L95.8206 32.869L99.5857 29.0832L98.3237 29.0392L96.7707 27.3143L97.1753 15.7464L96.3021 15.874L92.3208 12.2922L84.3582 17.3879L83.962 28.719L83.2618 29.3832ZM107.393 13.5853C106.906 13.3313 106.443 13.0104 106.027 12.6459L99.4341 16.9653L99.166 24.6322L99.7466 25.1265L103.578 25.2601L98.3061 33.7346C99.0952 33.1074 99.6965 32.6881 100.132 32.4888C100.74 32.2165 101.41 32.0931 102.086 32.1167C102.931 32.1461 103.603 32.2712 104.126 32.4813C104.649 32.6915 105.178 33.0598 105.712 33.5865L112.196 28.8343L112.468 21.0547L112.011 20.5647L107.786 20.4173L107.8 20.0227L111.783 13.5578C111.38 13.7808 111.06 13.9051 110.822 13.942C110.437 13.9737 110.053 13.9829 109.67 13.9582L108.836 13.9292C108.329 13.9228 107.837 13.804 107.393 13.5853ZM116.694 34.1048L120.299 30.3586L118.628 28.4828L118.987 18.2115L119.957 17.568L122.688 19.7968L122.216 33.304C122.204 33.9583 122.136 34.6107 122.012 35.2611C121.904 35.7653 121.674 36.2314 121.31 36.6364C121.086 36.8882 120.791 37.2618 120.402 37.7562C119.909 38.2921 119.319 38.7231 118.653 39.0385C119.863 38.9791 120.955 38.7237 121.907 38.2715C122.859 37.8193 123.763 37.1283 124.608 36.2095C125.241 35.5204 125.74 34.7928 126.105 34.0266C126.471 33.2604 126.724 32.4678 126.865 31.6599L127.396 16.4841L126.242 16.568L122.577 13.9455L119.819 16.028L118.968 15.5242L119.229 8.04901L118.535 6.28637L114.866 9.60141L114.183 29.1181L113.07 30.2984L116.694 34.1048ZM136.496 11.4281L133.048 8.41796L130.053 11.4743L132.955 14.3073L136.496 11.4281ZM130.618 20.1523L130.242 30.8972L129.447 32.0209L130.788 32.0677L133.773 34.7794L137.111 31.9269L141.14 35.4314L144.909 31.5328L143.811 30.0383L144.163 19.9699L145.126 19.5293L147.142 21.8912L146.796 31.7566L150.358 35.0868L154.048 31.1854L152.392 31.1277L151.499 29.55L151.875 18.8051L152.383 17.8295L151.429 17.9994L147.902 14.9866L144.224 18.5384L140.192 15.1128L136.621 18.8264L137.962 18.8732L139.065 20.2549L138.72 30.1204L136.405 30.8299L134.98 29.6288L135.367 18.5682L135.864 17.9082L131.869 14.721L128.387 18.1555L129.523 18.5563L130.618 20.1523ZM201.232 33.0226L200.145 31.5172L200.497 21.4488L201.46 21.0082L203.476 23.3701L203.129 33.2806L206.692 36.5657L210.382 32.6643L208.726 32.6066L207.834 31.0289L208.209 20.2841L208.716 19.3535L207.764 19.4783L204.236 16.4655L200.558 20.0173L196.526 16.5917L192.956 20.3053L194.297 20.3521L195.399 21.7339L195.052 31.6444L193.566 33.489L197.849 36.5282L201.232 33.0226ZM154.805 31.4827C155.334 31.5012 155.805 31.5854 156.24 31.736C156.675 31.8866 157.084 32.1266 157.501 32.4685C157.906 32.81 158.21 33.1367 158.391 33.4478C158.572 33.7589 158.727 34.182 158.844 34.7053L156.7 37.2834L154.423 40.1277C154.987 39.8313 155.467 39.6561 155.863 39.6022C156.26 39.5483 156.836 39.5346 157.602 39.5613C158.49 39.6712 159.248 39.9122 159.868 40.2724C160.487 40.6327 161.043 41.1713 161.549 41.8776C162.827 41.448 164.329 40.4393 166.065 38.8743C167.801 37.298 168.682 35.9853 168.718 34.9368C168.725 34.7564 168.553 34.1747 168.203 33.2255C167.853 32.2538 167.697 31.2324 167.734 30.1951L168.163 17.9056L162.796 14.2754L155.718 18.9279L155.309 30.6198L154.805 31.4827ZM168.9 18.4506L171.188 18.5303L170.708 32.2405L170.119 33.2923L171.459 33.3391L174.267 35.6495L178.122 31.5507L176.499 31.4942L175.469 30.3068L175.866 18.9644L178.299 16.1594L175.967 16.078L176.23 8.53519L171.378 12.7572L171.273 15.7563L168.9 18.4506ZM178.411 32.3059L183.18 35.949L191.919 30.2821L192.325 18.6691L191.45 18.8418L187.459 15.2257L179.496 20.3214L179.099 31.6638L178.411 32.3059ZM219.166 14.1075L219.037 17.783C218.35 17.7591 217.773 17.8067 217.294 17.9367C216.816 18.0668 216.355 18.333 215.901 18.7348C215.447 19.1367 215.182 19.6241 215.084 20.1738C214.986 20.7235 214.915 21.4435 214.884 22.3455C214.871 22.7176 214.851 22.9653 214.812 23.0994C215.419 22.1949 216.244 21.8398 217.264 22.0334C217.948 22.1589 218.478 22.4709 218.856 22.9582L218.642 29.0804C217.414 29.6697 216.326 30.4671 215.4 31.4621C214.355 32.611 213.637 33.8051 213.254 35.0673C213.717 34.7335 214.201 34.4343 214.706 34.1923C215.108 34.0031 215.667 33.8307 216.384 33.6412C216.646 33.5713 216.953 33.4917 217.306 33.4137C217.647 33.3353 218.043 33.304 218.494 33.3197L218.081 45.1244L223.401 41.0767L225.092 42.4L225.327 35.6802L227.509 36.5126L235.149 31.5976L235.757 14.2119L231.114 10.2119L226.08 14.1454L226.156 11.9806L225.237 11.1584L225.115 14.631L224.307 15.156L224.434 11.5255L220.519 8.29591L215.577 12.8309C215.98 12.6079 216.39 12.498 216.807 12.5125C217.145 12.5243 217.481 12.5925 217.793 12.705C218.493 13.0003 218.951 13.4678 219.166 14.1075ZM235.718 34.6992L240.488 38.3085L249.26 32.6428L249.665 21.0636L248.792 21.1911L244.765 17.6077L236.803 22.7034L236.407 34.0346L235.718 34.6992ZM258.965 18.7012C258.466 18.4354 257.981 18.125 257.53 17.7819L250.973 22.0574L250.705 29.7242L251.24 30.217L255.071 30.3506L249.8 38.8251C250.368 38.3708 250.843 38.0374 251.223 37.8023C251.926 37.3753 252.723 37.1773 253.613 37.2084C254.436 37.237 255.097 37.3617 255.62 37.5718C256.142 37.7932 256.671 38.1504 257.206 38.677L263.701 33.9252L263.973 26.1456L263.516 25.6556L259.291 25.5082L259.305 25.1136L263.288 18.6487C262.885 18.8717 262.565 18.996 262.326 19.0328C262.088 19.0697 261.705 19.0676 261.175 19.0491L260.353 19.0205C259.812 19.0016 259.353 18.8953 258.965 18.7012ZM264.221 21.9662L266.508 22.0459L266.029 35.7561L265.439 36.8079L266.78 36.8547L269.542 39.1636L273.442 35.0664L271.82 35.0098L270.789 33.8224L271.186 22.4913L273.574 19.6847L271.287 19.6049L271.55 12.0621L266.721 16.2849L266.616 19.284L264.221 21.9662ZM89.0922 16.2209L92.0884 18.6169L91.7666 27.8172L90.7376 28.8537L88.7052 26.9654L89.0922 16.2209ZM164.957 35.0765C165.572 35.5495 165.868 36.1243 165.844 36.812C165.833 37.1277 165.791 37.3633 165.74 37.5196C165.574 37.7509 165.445 37.9044 165.363 37.9806C165.141 38.1873 164.866 38.3132 164.56 38.3477C164.22 38.3923 163.776 38.2074 163.237 37.8048C162.698 37.4022 161.871 37.1815 160.767 37.143C160.057 37.1182 159.412 37.1635 158.821 37.2784C158.242 37.3936 157.626 37.5979 156.984 37.8916L163.002 30.9784L162.97 31.8916C162.951 32.4215 162.981 32.8515 163.059 33.2042C163.138 33.5456 163.329 33.8909 163.633 34.2176C164.074 34.5039 164.515 34.8015 164.957 35.0765ZM160.446 18.2348L163.366 20.5492L163.054 29.4788L162.153 30.3956L160.098 28.1904L160.446 18.2348ZM41.1021 20.9933L41.304 15.2206L44.0616 18.9517L41.1021 20.9933ZM108.96 16.8347L106.112 21.5216L104.095 21.4513L104.276 16.2762C105.047 16.7998 105.894 17.089 106.818 17.1212C107.551 17.1354 108.265 17.0475 108.96 16.8347ZM184.242 19.1435L187.236 21.5847L186.914 30.7849L185.897 31.8218L183.866 29.8884L184.242 19.1435ZM104.738 24.3523L107.622 24.4529L107.444 29.5491C107.044 29.3884 106.631 29.2611 106.216 29.1676C105.936 29.124 105.373 29.0818 104.506 29.0516C103.999 29.0226 103.501 29.0617 103.001 29.1571C102.581 29.2441 102.068 29.4068 101.485 29.6235L104.738 24.3523ZM224.216 17.7604L225.029 17.1114L224.24 39.661L223.468 39.16L224.216 17.7604ZM225.996 16.5582L228.461 15.0976L230.152 16.4209L229.633 31.2698C228.827 30.7675 228.396 30.5042 228.318 30.4676L227.46 30.1555C226.824 29.9752 226.176 29.7946 225.539 29.6144L225.996 16.5582ZM15.0093 10.9397C15.2685 10.9488 15.4834 10.9337 15.6431 10.8828L15.1403 25.2582C14.1314 25.7197 13.0293 25.9409 11.9138 25.902C11.2603 25.8792 10.5982 25.7771 9.95019 25.5965C9.30216 25.4158 8.79133 25.1835 8.42855 24.9113L13.0818 20.5694L13.4272 10.6927C13.6152 10.8008 13.8157 10.8755 14.0294 10.8943C14.2544 10.9134 14.4004 10.9298 14.4793 10.9325L15.0093 10.9397ZM241.559 21.5373L244.556 23.9333L244.234 33.1335L243.25 34.1716L241.184 32.2821L241.559 21.5373ZM62.9353 11.5497L64.4404 10.4508L67.3751 13.6349L66.8791 27.8186L65.6067 29.0385L62.4381 25.7672L62.9353 11.5497ZM259.476 22.162C259.816 22.1174 260.157 22.039 260.466 21.9143L257.617 26.6013L255.6 26.5309L255.781 21.3558C256.541 21.879 257.433 22.1698 258.357 22.202C258.763 22.2161 259.136 22.1953 259.476 22.162ZM256.254 29.4436L259.138 29.5442L258.96 34.6404C258.56 34.4797 258.147 34.3524 257.732 34.2589C257.452 34.204 256.889 34.1731 256.01 34.1425C255.504 34.1135 254.995 34.1522 254.506 34.248C254.006 34.3661 253.504 34.5179 253.023 34.7156L256.254 29.4436ZM73.3131 11.9116L74.7844 10.8115L77.7529 13.9968L77.2569 28.1804L75.9507 29.3992L72.8272 26.1295L73.3131 11.9116Z" fill="white"/>
</svg>
